<?xml version="1.0" encoding="UTF-8" standalone="no"?>
<!-- Created with Inkscape (http://www.inkscape.org/) -->

<svg
   width="4.5216446mm"
   height="4.8034286mm"
   viewBox="0 0 4.5216446 4.8034286"
   version="1.1"
   id="svg854"
   xml:space="preserve"
   xmlns:inkscape="http://www.inkscape.org/namespaces/inkscape"
   xmlns:sodipodi="http://sodipodi.sourceforge.net/DTD/sodipodi-0.dtd"
   xmlns="http://www.w3.org/2000/svg"
   xmlns:svg="http://www.w3.org/2000/svg"><sodipodi:namedview
     id="namedview856"
     pagecolor="#ffffff"
     bordercolor="#000000"
     borderopacity="0.25"
     inkscape:showpageshadow="2"
     inkscape:pageopacity="0.0"
     inkscape:pagecheckerboard="0"
     inkscape:deskcolor="#d1d1d1"
     inkscape:document-units="mm"
     showgrid="false" /><defs
     id="defs851" /><g
     inkscape:label="Layer 1"
     inkscape:groupmode="layer"
     id="layer1"
     transform="translate(-93.500925,-110.68097)"><g
       id="g4097"
       inkscape:export-filename="g4097.svg"
       inkscape:export-xdpi="96"
       inkscape:export-ydpi="96"><path
         d="M 94.853452,110.68098 H 93.66999 c -0.09299,0 -0.169066,0.0761 -0.169066,0.16907 v 1.18346 c 0,0.093 0.07608,0.16906 0.169066,0.16906 h 1.183462 c 0.09299,0 0.169066,-0.0761 0.169066,-0.16906 v -1.18346 c 0,-0.093 -0.07608,-0.16907 -0.169066,-0.16907 z m 0,1.35253 H 93.66999 v -1.18346 h 1.183462 z m -0.08538,-0.84533 -0.119191,-0.12004 -0.557072,0.55707 -0.218096,-0.21725 -0.120036,0.11919 0.338132,0.33729 z"
         id="path2790-6"
         style="stroke-width:0.084533" /><path
         d="M 94.853452,112.3219 H 93.66999 c -0.09299,0 -0.169066,0.0761 -0.169066,0.16907 v 1.18346 c 0,0.093 0.07608,0.16906 0.169066,0.16906 h 1.183462 c 0.09299,0 0.169066,-0.0761 0.169066,-0.16906 v -1.18346 c 0,-0.093 -0.07608,-0.16907 -0.169066,-0.16907 z m 0,1.35253 H 93.66999 v -1.18346 h 1.183462 z m -0.08538,-0.84533 -0.119191,-0.12004 -0.557072,0.55707 -0.218096,-0.21725 -0.120036,0.11919 0.338132,0.33729 z"
         id="path2790-6-5"
         style="stroke-width:0.084533" /><path
         d="M 94.853452,113.96282 H 93.66999 c -0.09299,0 -0.169066,0.0761 -0.169066,0.16907 v 1.18346 c 0,0.093 0.07608,0.16906 0.169066,0.16906 h 1.183462 c 0.09299,0 0.169066,-0.0761 0.169066,-0.16906 v -1.18346 c 0,-0.093 -0.07608,-0.16907 -0.169066,-0.16907 z m 0,1.35253 H 93.66999 v -1.18346 h 1.183462 z m -0.08538,-0.84533 -0.119191,-0.12004 -0.557072,0.55707 -0.218096,-0.21725 -0.120036,0.11919 0.338132,0.33729 z"
         id="path2790-6-5-0"
         style="stroke-width:0.084533" /><path
         fill-rule="evenodd"
         d="m 95.347351,111.28314 h 2.675217 v 0.31726 h -2.675217 z"
         id="path3667"
         style="stroke-width:0.162859" /><path
         fill-rule="evenodd"
         d="m 95.347351,112.92406 h 2.675217 v 0.31726 h -2.675217 z"
         id="path3667-2"
         style="stroke-width:0.162859" /><path
         fill-rule="evenodd"
         d="m 95.347351,114.56498 h 2.675217 v 0.31726 h -2.675217 z"
         id="path3667-2-6"
         style="stroke-width:0.162859" /></g></g></svg>
